<svg width="200" height="200" viewBox="0 0 200 200" fill="none" xmlns="http://www.w3.org/2000/svg">
<rect width="200" height="200" fill="white"/>
<path d="M131.63 121.551C131.63 125.669 130.865 129.524 129.336 133.115C127.807 136.659 125.704 139.771 123.028 142.453C120.4 145.086 117.294 147.169 113.71 148.702C110.173 150.234 106.374 151 102.313 151H13V136.275H102.313C104.367 136.275 106.279 135.892 108.047 135.126C109.815 134.36 111.344 133.307 112.634 131.966C113.972 130.625 115.024 129.069 115.788 127.297C116.553 125.477 116.935 123.562 116.935 121.551C116.935 119.54 116.553 117.648 115.788 115.877C115.024 114.105 113.972 112.549 112.634 111.208C111.344 109.867 109.815 108.814 108.047 108.047C106.279 107.281 104.367 106.898 102.313 106.898H42.3886C38.3745 106.898 34.5755 106.132 30.9915 104.6C27.4076 103.067 24.2776 100.984 21.6015 98.3508C18.9733 95.6692 16.8707 92.5328 15.2937 88.9414C13.7646 85.3501 13 81.5193 13 77.4491C13 73.4268 13.7646 69.6199 15.2937 66.0286C16.8707 62.4372 18.9733 59.3247 21.6015 56.6911C24.2776 54.0095 27.4076 51.9026 30.9915 50.3703C34.5755 48.7901 38.3745 48 42.3886 48H124.318V62.7245H42.3886C40.3816 62.7245 38.4701 63.1076 36.6542 63.8738C34.8861 64.6399 33.3331 65.6934 31.9951 67.0342C30.657 68.3749 29.6057 69.9551 28.8412 71.7748C28.0766 73.5465 27.6943 75.4379 27.6943 77.4491C27.6943 79.4603 28.0766 81.3756 28.8412 83.1953C29.6057 84.967 30.657 86.5232 31.9951 87.864C33.3331 89.2048 34.8861 90.2583 36.6542 91.0244C38.4701 91.7906 40.3816 92.1736 42.3886 92.1736H102.313C106.374 92.1736 110.173 92.9637 113.71 94.5439C117.294 96.0762 120.4 98.1832 123.028 100.865C125.704 103.498 127.807 106.611 129.336 110.202C130.865 113.746 131.63 117.529 131.63 121.551Z" fill="#1E1E1E"/>
<path d="M188 99.5C188 106.635 186.853 113.339 184.559 119.612C182.313 125.884 179.112 131.343 174.954 135.988C170.797 140.633 165.803 144.296 159.973 146.978C154.191 149.659 147.764 151 140.692 151H88.8673V136.275H140.692C145.757 136.275 150.297 135.318 154.311 133.402C158.372 131.487 161.789 128.877 164.561 125.573C167.38 122.221 169.531 118.319 171.012 113.865C172.541 109.364 173.306 104.576 173.306 99.5C173.306 94.4242 172.541 89.6597 171.012 85.2064C169.531 80.7531 167.38 76.8745 164.561 73.5704C161.789 70.2185 158.372 67.5848 154.311 65.6695C150.297 63.7062 145.757 62.7245 140.692 62.7245H81.556V151H66.8617V48H140.692C147.764 48 154.191 49.3647 159.973 52.0941C165.803 54.7757 170.797 58.4628 174.954 63.1555C179.112 67.8003 182.313 73.2592 184.559 79.5321C186.853 85.7571 188 92.4131 188 99.5Z" fill="#1E1E1E"/>
</svg>
